<svg aria-hidden="true" style="position: absolute; width: 0; height: 0; overflow: hidden;" version="1.1" xmlns="http://www.w3.org/2000/svg" xmlns:xlink="http://www.w3.org/1999/xlink">
<defs>
<symbol id="icon-location_onplaceroom" viewBox="0 0 24 24">
<title>location_onplaceroom</title>
<path d="M12 11.484q1.031 0 1.758-0.727t0.727-1.758-0.727-1.758-1.758-0.727-1.758 0.727-0.727 1.758 0.727 1.758 1.758 0.727zM12 2.016q2.906 0 4.945 2.039t2.039 4.945q0 1.453-0.727 3.328t-1.758 3.516-2.039 3.070-1.711 2.273l-0.75 0.797q-0.281-0.328-0.75-0.867t-1.688-2.156-2.133-3.141-1.664-3.445-0.75-3.375q0-2.906 2.039-4.945t4.945-2.039z"></path>
</symbol>
<symbol id="icon-home" viewBox="0 0 24 24">
<title>home</title>
<path d="M9.984 20.016h-4.969v-8.016h-3l9.984-9 9.984 9h-3v8.016h-4.969v-6h-4.031v6z"></path>
</symbol>
<symbol id="icon-flight_takeoff" viewBox="0 0 24 24">
<title>flight_takeoff</title>
<path d="M22.078 9.656q0.141 0.609-0.164 1.125t-0.914 0.703q-5.813 1.547-9.656 2.578l-5.297 1.406-1.594 0.469-2.625-4.5 1.453-0.375 1.969 1.5 4.969-1.313-4.125-7.172 1.922-0.516 6.891 6.422 5.344-1.406q0.609-0.188 1.148 0.141t0.68 0.938zM2.484 18.984h19.031v2.016h-19.031v-2.016z"></path>
</symbol>
<symbol id="icon-chevron-right" viewBox="0 0 24 24">
<title>chevron-right</title>
<path d="M9.707 18.707l6-6c0.391-0.391 0.391-1.024 0-1.414l-6-6c-0.391-0.391-1.024-0.391-1.414 0s-0.391 1.024 0 1.414l5.293 5.293-5.293 5.293c-0.391 0.391-0.391 1.024 0 1.414s1.024 0.391 1.414 0z"></path>
</symbol>
<symbol id="icon-map" viewBox="0 0 41 32">
<title>map</title>
<path d="M9.239 31.927c0.009 0.006 0.021 0.003 0.030 0.009 0.073 0.037 0.149 0.064 0.231 0.064 0.044 0 0.088-0.006 0.132-0.018l10.868-2.966 10.868 2.966c0.044 0.012 0.088 0.018 0.132 0.018 0.082 0 0.158-0.027 0.23-0.065 0.010-0.005 0.021-0.003 0.030-0.009l9-5.5c0.191-0.117 0.281-0.348 0.22-0.563l-4.984-17.5c-0.041-0.147-0.148-0.267-0.29-0.326-0.142-0.057-0.301-0.048-0.436 0.026l-4.962 2.784c-0.24 0.135-0.326 0.44-0.191 0.681s0.439 0.327 0.682 0.191l4.409-2.475 4.707 16.526-8.015 4.899-1.904-15.231c-0.034-0.275-0.293-0.466-0.559-0.434-0.273 0.034-0.468 0.284-0.434 0.558l1.907 15.259-9.91-2.705v-2.73c0-0.276-0.224-0.5-0.5-0.5s-0.5 0.224-0.5 0.5v2.73l-9.911 2.705 1.907-15.259c0.034-0.274-0.16-0.524-0.434-0.558-0.272-0.032-0.524 0.159-0.559 0.434l-1.903 15.231-8.015-4.898 4.707-16.525 4.409 2.475c0.242 0.134 0.546 0.049 0.682-0.191 0.135-0.241 0.049-0.545-0.191-0.681l-4.963-2.785c-0.133-0.075-0.292-0.085-0.435-0.026s-0.249 0.178-0.29 0.326l-4.984 17.5c-0.062 0.216 0.028 0.446 0.22 0.563l8.999 5.5zM20.161 23.368c0.096 0.088 0.217 0.132 0.339 0.132 0.12 0 0.24-0.043 0.336-0.129 0.333-0.303 8.164-7.489 8.164-14.871 0-4.767-3.733-8.5-8.5-8.5s-8.5 3.733-8.5 8.5c0 7.254 7.828 14.56 8.161 14.868zM20.5 1c4.275 0 7.5 3.224 7.5 7.5 0 6.097-5.993 12.337-7.497 13.807-1.501-1.487-7.503-7.809-7.503-13.807 0-4.276 3.225-7.5 7.5-7.5zM25 8.5c0-2.481-2.019-4.5-4.5-4.5s-4.5 2.019-4.5 4.5 2.019 4.5 4.5 4.5 4.5-2.019 4.5-4.5zM20.5 12c-1.93 0-3.5-1.57-3.5-3.5s1.57-3.5 3.5-3.5 3.5 1.57 3.5 3.5-1.57 3.5-3.5 3.5z"></path>
</symbol>
<symbol id="icon-star" viewBox="0 0 32 32">
<title>star</title>
<path d="M22.137 19.625l9.863-7.625h-12l-4-12-4 12h-12l9.875 7.594-3.875 12.406 10.016-7.68 9.992 7.68z"></path>
</symbol>
<symbol id="icon-bubbles2" viewBox="0 0 36 32">
<title>bubbles2</title>
<path d="M15 0v0c8.284 0 15 5.435 15 12.139s-6.716 12.139-15 12.139c-0.796 0-1.576-0.051-2.339-0.147-3.222 3.209-6.943 3.785-10.661 3.869v-0.785c2.008-0.98 3.625-2.765 3.625-4.804 0-0.285-0.022-0.564-0.063-0.837-3.392-2.225-5.562-5.625-5.562-9.434 0-6.704 6.716-12.139 15-12.139zM31.125 27.209c0 1.748 1.135 3.278 2.875 4.118v0.673c-3.223-0.072-6.181-0.566-8.973-3.316-0.661 0.083-1.337 0.126-2.027 0.126-2.983 0-5.732-0.805-7.925-2.157 4.521-0.016 8.789-1.464 12.026-4.084 1.631-1.32 2.919-2.87 3.825-4.605 0.961-1.84 1.449-3.799 1.449-5.825 0-0.326-0.014-0.651-0.039-0.974 2.268 1.873 3.664 4.426 3.664 7.24 0 3.265-1.88 6.179-4.82 8.086-0.036 0.234-0.055 0.474-0.055 0.718z"></path>
</symbol>
<symbol id="icon-search" viewBox="0 0 32 32">
<title>search</title>
<path d="M31.008 27.231l-7.58-6.447c-0.784-0.705-1.622-1.029-2.299-0.998 1.789-2.096 2.87-4.815 2.87-7.787 0-6.627-5.373-12-12-12s-12 5.373-12 12 5.373 12 12 12c2.972 0 5.691-1.081 7.787-2.87-0.031 0.677 0.293 1.515 0.998 2.299l6.447 7.58c1.104 1.226 2.907 1.33 4.007 0.23s0.997-2.903-0.23-4.007zM12 20c-4.418 0-8-3.582-8-8s3.582-8 8-8 8 3.582 8 8-3.582 8-8 8z"></path>
</symbol>
<symbol id="icon-key" viewBox="0 0 32 32">
<title>key</title>
<path d="M22 0c-5.523 0-10 4.477-10 10 0 0.626 0.058 1.238 0.168 1.832l-12.168 12.168v6c0 1.105 0.895 2 2 2h2v-2h4v-4h4v-4h4l2.595-2.595c1.063 0.385 2.209 0.595 3.405 0.595 5.523 0 10-4.477 10-10s-4.477-10-10-10zM24.996 10.004c-1.657 0-3-1.343-3-3s1.343-3 3-3 3 1.343 3 3-1.343 3-3 3z"></path>
</symbol>
<symbol id="icon-bookmark" viewBox="0 0 32 32">
<title>bookmark</title>
<path d="M6 0v32l10-10 10 10v-32z"></path>
</symbol>
</defs>
</svg>
